<svg width="160" height="53" xmlns="http://www.w3.org/2000/svg"><g fill="none" fill-rule="evenodd"><path d="M2.148 37c-.6 0-1.114-.19-1.526-.566A1.815 1.815 0 0 1 0 35.044V14.956c0-.568.211-1.042.626-1.409.414-.363.926-.546 1.522-.546h14.737c.618 0 1.13.174 1.52.516.395.347.595.8.595 1.35 0 .534-.202.975-.601 1.312-.39.328-.9.495-1.514.495H4.296v6.386h8.905c.593 0 1.098.173 1.498.512.41.347.617.793.617 1.325 0 .532-.207.978-.617 1.326-.4.339-.905.51-1.498.51H4.296v8.313c0 .546-.209 1.013-.621 1.389-.413.375-.927.566-1.527.566M140.928 37c-.288 0-.584-.054-.88-.162a1.579 1.579 0 0 1-.766-.556l-13.107-16.205v14.968c0 .543-.197 1.009-.587 1.384-.394.379-.905.571-1.516.571-.589 0-1.086-.186-1.48-.551-.392-.365-.592-.838-.592-1.404v-20.09c0-.566.2-1.038.593-1.404.394-.366.891-.551 1.479-.551.301 0 .604.07.9.207.286.133.525.3.71.498l13.143 16.248V14.955c0-.568.206-1.042.613-1.409h.002c.403-.363.904-.546 1.488-.546.587 0 1.085.185 1.479.55.394.368.593.84.593 1.405v20.09c0 .566-.2 1.038-.593 1.404-.393.365-.89.551-1.479.551M30.5 37c-.699 0-1.296-.19-1.777-.566-.48-.375-.723-.842-.723-1.39V14.956c0-.568.246-1.043.73-1.409.48-.363 1.076-.546 1.77-.546.723 0 1.326.185 1.795.55.468.368.705.84.705 1.405v20.09c0 .543-.235 1.009-.699 1.384-.468.379-1.074.571-1.8.571M110.5 37c-.7 0-1.296-.19-1.777-.566-.48-.375-.723-.842-.723-1.39V14.956c0-.568.246-1.043.73-1.409.48-.363 1.076-.546 1.77-.546.722 0 1.326.185 1.794.55.469.368.706.84.706 1.405v20.09c0 .543-.235 1.009-.699 1.384-.468.379-1.074.571-1.8.571" fill="#FFF"/><text transform="translate(152 2)" fill="#FFF" font-family="Helvetica" font-size="10"><tspan x="0" y="10">®</tspan></text><path d="M63.586 21.133c-.38 4.262 3.08 10.748 1.511 19.177-.52 2.794-1.7 5.145-3.126 7.098-.124.175-.245.352-.372.52-.218.277-.43.55-.658.807C58.701 51.37 55.998 53 53.285 53c-.176 0-.352-.007-.528-.02-2.12-.179-4.144-1.175-5.894-2.79l-.024.01c-.14-.127-.265-.287-.402-.423a13.723 13.723 0 0 1-.477-.503c-1.533-1.675-2.814-3.832-3.379-6.523-1.36-6.474-.213-11.675 2.184-19.06.5-1.538.91-2.82 1.272-3.957.29-.926.544-1.783.773-2.587l7.203 1.206.019.003-3.527 18.984c-.215 1.153.587 2.249 1.788 2.442.126.02.253.03.374.03 1.082 0 2.003-.743 2.194-1.77l3.532-18.986 5.333.821c-.048.404-.097.78-.14 1.256zM59.783.111c5.802.804 9.645 6.793 5.651 13.236a20.784 20.784 0 0 0-1.034 1.859c-.048.11-.093.258-.14.382l-15.99-2.582c.24-1.022.44-1.936.574-2.638a16.6 16.6 0 0 1 .36-2.248l.012-.107.013.022C50.296 3.553 53.242 0 58.215 0c.502 0 1.025.036 1.568.111zM95.654 24.41c2.398 7.205 3.544 12.278 2.184 18.594-.565 2.625-1.845 4.728-3.378 6.362-.156.17-.316.332-.478.491-.137.133-.262.289-.402.414-.007-.005-.016-.007-.024-.012-1.75 1.577-3.774 2.548-5.894 2.722-.176.013-.352.02-.528.02-2.712 0-5.417-1.59-7.656-4.16-.227-.251-.44-.517-.658-.788-.127-.164-.248-.336-.37-.507-1.428-1.905-2.608-4.199-3.128-6.924-1.57-8.222 1.891-14.55 1.51-18.707a38.354 38.354 0 0 0-.252-2.133l5.967-.897 3.532 18.521c.191 1.001 1.112 1.726 2.194 1.726.124 0 .248-.01.374-.03 1.201-.188 2.003-1.256 1.788-2.382l-3.527-18.518 6.455-1.054a95.537 95.537 0 0 0 1.02 3.402c.362 1.11.772 2.36 1.271 3.86zm-3.788-11.585l-16.363 2.764c-.238-.476-.47-.948-.785-1.474C70.681 7.3 74.566.968 80.431.118 80.98.038 81.509 0 82.016 0c5.027 0 8.005 3.758 9.084 8.497l.014-.024.012.114c.171.771.293 1.565.364 2.377.094.52.227 1.165.376 1.86z" fill="#F57D28"/></g></svg>